<?xml version="1.0" encoding="utf-8"?>
<!-- Generator: Adobe Illustrator 25.2.0, SVG Export Plug-In . SVG Version: 6.00 Build 0)  -->
<svg version="1.1" id="Layer_1" xmlns="http://www.w3.org/2000/svg" xmlns:xlink="http://www.w3.org/1999/xlink" x="0px" y="0px"
	 viewBox="0 0 510.42 471.44" style="enable-background:new 0 0 510.42 471.44;" xml:space="preserve">
<style type="text/css">
	.st0{fill:#CBE3F5;}
	.st1{fill:#D4E8CE;}
	.st2{fill:#FFF2C9;}
	.st3{fill:#F9CACC;}
	.st4{fill:none;stroke:#000000;stroke-width:2.3459;stroke-miterlimit:10;stroke-dasharray:10.3219;}
	.st5{fill:none;stroke:#000000;stroke-width:2.3459;stroke-miterlimit:10;}
	.st6{fill:none;stroke:#D4E8CE;stroke-width:2.3459;stroke-miterlimit:10;}
</style>
<g>
	<rect x="22.2" y="40.45" class="st0" width="155.69" height="21.96"/>
	<rect x="35.05" y="67.1" class="st0" width="210.21" height="21.96"/>
	<rect x="54.02" y="93.76" class="st0" width="155.56" height="21.96"/>
	<rect x="73.67" y="120.41" class="st1" width="45.41" height="21.96"/>
	<rect x="80.44" y="147.06" class="st2" width="253.06" height="21.96"/>
	<rect x="95.8" y="173.72" class="st2" width="155.82" height="21.96"/>
	<rect x="121.02" y="200.37" class="st2" width="155.66" height="21.96"/>
	<rect x="135.39" y="227.02" class="st1" width="44.37" height="21.96"/>
	<rect x="144.11" y="253.67" class="st3" width="51.3" height="21.96"/>
	<rect x="245.26" y="280.33" class="st0" width="155.31" height="21.96"/>
	<rect x="257.82" y="306.98" class="st0" width="155.78" height="21.96"/>
	<rect x="267.2" y="333.63" class="st3" width="52" height="21.96"/>
	<rect x="333.5" y="360.29" class="st2" width="155.03" height="21.96"/>
	<line class="st4" x1="245.26" y1="22.15" x2="245.26" y2="341.44"/>
	<line class="st5" x1="21.88" y1="426.17" x2="483.06" y2="426.17"/>
	<polygon points="473.9,419.07 477.13,426.17 473.9,433.27 488.53,426.17 	"/>
	<line class="st6" x1="136.56" y1="248.98" x2="136.56" y2="338.33"/>
	<g>
		<path d="M255.29,22.35h1.35l3.19,8.79h-1.3l-0.89-2.63h-3.48l-0.95,2.63h-1.22L255.29,22.35z M257.25,27.53l-1.33-3.88l-1.42,3.88
			H257.25z"/>
		<path d="M264.42,28.3c0.03,0.5,0.14,0.9,0.34,1.21c0.38,0.58,1.05,0.87,2.01,0.87c0.43,0,0.82-0.06,1.18-0.19
			c0.68-0.25,1.03-0.69,1.03-1.33c0-0.48-0.14-0.82-0.43-1.02c-0.29-0.2-0.75-0.37-1.38-0.52L266,27.05
			c-0.75-0.18-1.29-0.37-1.6-0.58c-0.54-0.37-0.81-0.92-0.81-1.65c0-0.79,0.27-1.44,0.8-1.94c0.53-0.51,1.28-0.76,2.26-0.76
			c0.9,0,1.66,0.22,2.28,0.67c0.63,0.44,0.94,1.16,0.94,2.13h-1.12c-0.06-0.47-0.18-0.83-0.37-1.08c-0.35-0.46-0.94-0.69-1.77-0.69
			c-0.67,0-1.16,0.15-1.45,0.44c-0.29,0.3-0.44,0.64-0.44,1.03c0,0.43,0.17,0.75,0.52,0.95c0.23,0.13,0.74,0.29,1.55,0.48l1.19,0.28
			c0.58,0.14,1.02,0.32,1.33,0.56c0.54,0.41,0.81,1.01,0.81,1.79c0,0.97-0.34,1.67-1.04,2.09c-0.69,0.42-1.49,0.63-2.41,0.63
			c-1.07,0-1.9-0.28-2.5-0.84c-0.6-0.55-0.9-1.31-0.89-2.26H264.42z"/>
		<path d="M271.67,22.35h1.09v1.22h-1.09V22.35z M271.67,24.76h1.09v6.38h-1.09V24.76z"/>
		<path d="M277.95,24.99c0.2,0.14,0.41,0.34,0.62,0.61v-0.81h0.99v5.83c0,0.81-0.12,1.46-0.36,1.93c-0.45,0.87-1.29,1.3-2.52,1.3
			c-0.69,0-1.27-0.15-1.73-0.46c-0.47-0.31-0.73-0.79-0.79-1.45h1.09c0.05,0.29,0.16,0.51,0.31,0.66c0.24,0.24,0.62,0.36,1.14,0.36
			c0.82,0,1.36-0.29,1.61-0.87c0.15-0.34,0.22-0.96,0.21-1.84c-0.21,0.33-0.47,0.57-0.77,0.73c-0.3,0.16-0.7,0.24-1.2,0.24
			c-0.69,0-1.3-0.25-1.81-0.74c-0.52-0.49-0.78-1.31-0.78-2.44c0-1.07,0.26-1.91,0.78-2.51s1.15-0.9,1.89-0.9
			C277.14,24.61,277.58,24.74,277.95,24.99z M278.08,26.14c-0.33-0.38-0.74-0.57-1.24-0.57c-0.75,0-1.27,0.35-1.55,1.06
			c-0.15,0.38-0.22,0.88-0.22,1.49c0,0.72,0.15,1.27,0.44,1.65c0.29,0.38,0.68,0.56,1.18,0.56c0.77,0,1.31-0.35,1.62-1.05
			c0.17-0.4,0.26-0.86,0.26-1.38C278.57,27.11,278.41,26.52,278.08,26.14z"/>
		<path d="M281.2,24.73h1.02v0.91c0.3-0.38,0.62-0.64,0.96-0.81s0.72-0.25,1.13-0.25c0.91,0,1.52,0.32,1.84,0.95
			c0.17,0.35,0.26,0.84,0.26,1.49v4.11h-1.09V27.1c0-0.39-0.06-0.71-0.17-0.95c-0.19-0.4-0.54-0.6-1.04-0.6
			c-0.26,0-0.46,0.03-0.63,0.08c-0.3,0.09-0.55,0.26-0.78,0.53c-0.18,0.21-0.3,0.43-0.35,0.65c-0.05,0.23-0.08,0.55-0.08,0.97v3.36
			h-1.08V24.73z"/>
		<path d="M291.45,27.26c0.25-0.03,0.41-0.14,0.5-0.31c0.05-0.1,0.07-0.23,0.07-0.41c0-0.37-0.13-0.64-0.39-0.8
			c-0.26-0.17-0.63-0.25-1.12-0.25c-0.56,0-0.96,0.15-1.19,0.46c-0.13,0.17-0.22,0.42-0.26,0.75h-1c0.02-0.79,0.28-1.34,0.77-1.65
			c0.49-0.31,1.06-0.46,1.71-0.46c0.75,0,1.36,0.14,1.83,0.43c0.47,0.29,0.7,0.73,0.7,1.34v3.69c0,0.11,0.02,0.2,0.07,0.27
			c0.05,0.07,0.14,0.1,0.29,0.1c0.05,0,0.1,0,0.16-0.01s0.12-0.01,0.19-0.03v0.8c-0.17,0.05-0.29,0.08-0.38,0.09
			c-0.09,0.01-0.21,0.02-0.36,0.02c-0.37,0-0.64-0.13-0.81-0.4c-0.09-0.14-0.15-0.34-0.18-0.59c-0.22,0.29-0.54,0.54-0.95,0.75
			c-0.41,0.21-0.86,0.32-1.36,0.32c-0.59,0-1.08-0.18-1.46-0.54s-0.57-0.81-0.57-1.35c0-0.59,0.19-1.05,0.56-1.38
			c0.37-0.33,0.86-0.53,1.46-0.6L291.45,27.26z M289.18,30.17c0.23,0.18,0.5,0.27,0.81,0.27c0.38,0,0.75-0.09,1.1-0.26
			c0.6-0.29,0.9-0.77,0.9-1.43v-0.87c-0.13,0.08-0.3,0.15-0.51,0.21s-0.41,0.1-0.61,0.12l-0.65,0.08c-0.39,0.05-0.68,0.13-0.88,0.24
			c-0.33,0.19-0.5,0.49-0.5,0.9C288.84,29.74,288.95,29.99,289.18,30.17z"/>
		<path d="M294.86,22.35h1.08v8.79h-1.08V22.35z"/>
		<path d="M298.19,29.12c0.03,0.36,0.12,0.63,0.27,0.83c0.28,0.35,0.76,0.52,1.44,0.52c0.41,0,0.77-0.09,1.08-0.26
			c0.31-0.17,0.46-0.44,0.46-0.8c0-0.28-0.12-0.48-0.37-0.63c-0.16-0.09-0.47-0.19-0.94-0.3l-0.87-0.22
			c-0.55-0.14-0.96-0.29-1.23-0.46c-0.47-0.29-0.71-0.69-0.71-1.21c0-0.61,0.22-1.1,0.66-1.47c0.44-0.37,1.04-0.56,1.79-0.56
			c0.98,0,1.68,0.28,2.12,0.85c0.27,0.36,0.4,0.75,0.39,1.16h-1.02c-0.02-0.24-0.11-0.46-0.26-0.66c-0.25-0.28-0.69-0.42-1.32-0.42
			c-0.42,0-0.73,0.08-0.95,0.23c-0.21,0.15-0.32,0.36-0.32,0.61c0,0.28,0.14,0.5,0.42,0.67c0.16,0.1,0.4,0.19,0.72,0.26l0.72,0.17
			c0.79,0.19,1.32,0.37,1.58,0.54c0.42,0.28,0.63,0.71,0.63,1.3c0,0.57-0.22,1.06-0.66,1.48c-0.44,0.42-1.11,0.62-2,0.62
			c-0.96,0-1.65-0.22-2.05-0.65c-0.4-0.43-0.62-0.97-0.64-1.61H298.19z"/>
	</g>
	<g>
		<path d="M22.93,436.15h6.38v1.08h-5.22v2.67h4.82v1.02h-4.82v2.98h5.31v1.05h-6.47V436.15z"/>
		<path d="M30.23,438.53h1.39l1.47,2.25l1.49-2.25l1.31,0.03l-2.16,3.09l2.26,3.28h-1.38l-1.59-2.41l-1.54,2.41h-1.36l2.25-3.28
			L30.23,438.53z"/>
		<path d="M40.93,438.71c0.42,0.21,0.75,0.49,0.97,0.83c0.21,0.32,0.36,0.7,0.43,1.13c0.06,0.3,0.1,0.77,0.1,1.41h-4.66
			c0.02,0.65,0.17,1.17,0.46,1.57c0.29,0.39,0.73,0.59,1.32,0.59c0.56,0,1-0.19,1.33-0.56c0.19-0.22,0.32-0.47,0.4-0.75h1.06
			c-0.03,0.24-0.12,0.5-0.28,0.79c-0.16,0.29-0.33,0.53-0.53,0.71c-0.32,0.32-0.73,0.53-1.21,0.65c-0.26,0.06-0.55,0.1-0.87,0.1
			c-0.79,0-1.46-0.29-2.02-0.87s-0.83-1.39-0.83-2.44c0-1.03,0.28-1.86,0.83-2.51c0.56-0.64,1.28-0.96,2.18-0.96
			C40.06,438.39,40.5,438.49,40.93,438.71z M41.31,441.22c-0.04-0.47-0.14-0.84-0.3-1.12c-0.29-0.52-0.78-0.78-1.46-0.78
			c-0.49,0-0.9,0.18-1.23,0.54c-0.33,0.36-0.51,0.81-0.53,1.36H41.31z"/>
		<path d="M48.01,438.87c0.45,0.35,0.73,0.96,0.82,1.81h-1.05c-0.06-0.4-0.21-0.72-0.44-0.98c-0.23-0.26-0.59-0.39-1.09-0.39
			c-0.69,0-1.18,0.33-1.47,1c-0.19,0.43-0.29,0.97-0.29,1.61c0,0.64,0.14,1.18,0.41,1.62c0.27,0.44,0.7,0.66,1.28,0.66
			c0.45,0,0.8-0.14,1.06-0.41c0.26-0.27,0.44-0.64,0.54-1.12h1.05c-0.12,0.85-0.42,1.47-0.9,1.86c-0.48,0.39-1.09,0.59-1.84,0.59
			c-0.84,0-1.51-0.31-2-0.92c-0.5-0.61-0.75-1.38-0.75-2.29c0-1.12,0.27-2,0.82-2.63c0.55-0.63,1.24-0.94,2.09-0.94
			C46.97,438.35,47.56,438.52,48.01,438.87z"/>
		<path d="M50.98,438.53v4.25c0,0.33,0.05,0.59,0.15,0.8c0.19,0.38,0.53,0.57,1.04,0.57c0.73,0,1.23-0.33,1.49-1
			c0.14-0.36,0.22-0.85,0.22-1.48v-3.15h1.08v6.41h-1.02l0.01-0.95c-0.14,0.24-0.31,0.45-0.51,0.62c-0.4,0.33-0.89,0.5-1.47,0.5
			c-0.9,0-1.51-0.3-1.83-0.92c-0.18-0.33-0.26-0.76-0.26-1.31v-4.35H50.98z"/>
		<path d="M56.93,436.74h1.09v1.79h1.02v0.88h-1.02v4.18c0,0.22,0.08,0.37,0.23,0.45c0.08,0.04,0.22,0.07,0.42,0.07
			c0.05,0,0.11,0,0.17,0c0.06,0,0.13-0.01,0.21-0.02v0.86c-0.12,0.04-0.25,0.06-0.39,0.08c-0.13,0.02-0.28,0.02-0.43,0.02
			c-0.5,0-0.84-0.13-1.02-0.39c-0.18-0.26-0.27-0.59-0.27-1v-4.24h-0.87v-0.88h0.87V436.74z"/>
		<path d="M60.12,436.15h1.09v1.22h-1.09V436.15z M60.12,438.56h1.09v6.38h-1.09V438.56z"/>
		<path d="M67.49,439.17c0.57,0.55,0.85,1.36,0.85,2.43c0,1.03-0.25,1.88-0.75,2.56c-0.5,0.67-1.27,1.01-2.32,1.01
			c-0.88,0-1.57-0.3-2.08-0.89s-0.77-1.4-0.77-2.4c0-1.08,0.27-1.93,0.81-2.57s1.27-0.96,2.19-0.96
			C66.23,438.35,66.92,438.62,67.49,439.17z M66.82,443.43c0.26-0.54,0.39-1.14,0.39-1.8c0-0.6-0.09-1.08-0.28-1.46
			c-0.3-0.59-0.82-0.88-1.55-0.88c-0.65,0-1.12,0.25-1.42,0.75c-0.3,0.5-0.44,1.11-0.44,1.82c0,0.68,0.15,1.25,0.44,1.7
			c0.3,0.45,0.76,0.68,1.41,0.68C66.07,444.24,66.56,443.97,66.82,443.43z"/>
		<path d="M69.66,438.53h1.02v0.91c0.3-0.38,0.62-0.64,0.96-0.81c0.34-0.16,0.72-0.25,1.13-0.25c0.91,0,1.52,0.32,1.84,0.95
			c0.18,0.35,0.26,0.84,0.26,1.49v4.11h-1.09v-4.04c0-0.39-0.06-0.71-0.17-0.95c-0.19-0.4-0.54-0.6-1.04-0.6
			c-0.26,0-0.46,0.03-0.63,0.08c-0.3,0.09-0.55,0.26-0.78,0.53c-0.18,0.21-0.3,0.43-0.35,0.65c-0.05,0.23-0.08,0.55-0.08,0.97v3.36
			h-1.08V438.53z"/>
		<path d="M86.19,436.15v1.05h-2.96v7.74h-1.2v-7.74h-2.96v-1.05H86.19z"/>
		<path d="M86.69,436.15h1.09v1.22h-1.09V436.15z M86.69,438.56h1.09v6.38h-1.09V438.56z"/>
		<path d="M89.42,438.53h1.06v0.91c0.25-0.32,0.49-0.54,0.69-0.69c0.35-0.24,0.76-0.36,1.21-0.36c0.51,0,0.92,0.12,1.23,0.38
			c0.18,0.14,0.33,0.35,0.48,0.63c0.24-0.34,0.52-0.6,0.84-0.76c0.32-0.17,0.69-0.25,1.09-0.25c0.86,0,1.45,0.31,1.76,0.93
			c0.17,0.33,0.25,0.79,0.25,1.35v4.27h-1.12v-4.45c0-0.43-0.11-0.72-0.32-0.88c-0.21-0.16-0.47-0.24-0.78-0.24
			c-0.42,0-0.79,0.14-1.09,0.42c-0.3,0.28-0.46,0.76-0.46,1.42v3.73h-1.09v-4.18c0-0.43-0.05-0.75-0.16-0.95
			c-0.16-0.3-0.47-0.45-0.92-0.45c-0.41,0-0.78,0.16-1.11,0.47c-0.33,0.31-0.5,0.88-0.5,1.71v3.4h-1.08V438.53z"/>
		<path d="M103.58,438.71c0.42,0.21,0.75,0.49,0.97,0.83c0.21,0.32,0.36,0.7,0.43,1.13c0.06,0.3,0.1,0.77,0.1,1.41h-4.66
			c0.02,0.65,0.17,1.17,0.46,1.57c0.29,0.39,0.73,0.59,1.32,0.59c0.56,0,1-0.19,1.33-0.56c0.19-0.22,0.32-0.47,0.4-0.75h1.06
			c-0.03,0.24-0.12,0.5-0.28,0.79c-0.16,0.29-0.33,0.53-0.53,0.71c-0.32,0.32-0.73,0.53-1.21,0.65c-0.26,0.06-0.55,0.1-0.87,0.1
			c-0.79,0-1.46-0.29-2.02-0.87s-0.83-1.39-0.83-2.44c0-1.03,0.28-1.86,0.83-2.51c0.56-0.64,1.28-0.96,2.18-0.96
			C102.72,438.39,103.15,438.49,103.58,438.71z M103.96,441.22c-0.04-0.47-0.14-0.84-0.3-1.12c-0.29-0.52-0.78-0.78-1.46-0.78
			c-0.49,0-0.9,0.18-1.23,0.54c-0.33,0.36-0.51,0.81-0.53,1.36H103.96z"/>
		<path d="M106.46,436.15h1.08v8.79h-1.08V436.15z"/>
		<path d="M109.15,436.15h1.09v1.22h-1.09V436.15z M109.15,438.56h1.09v6.38h-1.09V438.56z"/>
		<path d="M111.88,438.53h1.02v0.91c0.3-0.38,0.62-0.64,0.96-0.81c0.34-0.16,0.72-0.25,1.13-0.25c0.91,0,1.52,0.32,1.84,0.95
			c0.18,0.35,0.26,0.84,0.26,1.49v4.11H116v-4.04c0-0.39-0.06-0.71-0.17-0.95c-0.19-0.4-0.54-0.6-1.04-0.6
			c-0.26,0-0.46,0.03-0.63,0.08c-0.3,0.09-0.55,0.26-0.78,0.53c-0.18,0.21-0.3,0.43-0.35,0.65c-0.05,0.23-0.08,0.55-0.08,0.97v3.36
			h-1.08V438.53z"/>
		<path d="M122.65,438.71c0.42,0.21,0.75,0.49,0.97,0.83c0.21,0.32,0.36,0.7,0.43,1.13c0.06,0.3,0.1,0.77,0.1,1.41h-4.66
			c0.02,0.65,0.17,1.17,0.46,1.57c0.29,0.39,0.73,0.59,1.32,0.59c0.56,0,1-0.19,1.33-0.56c0.19-0.22,0.32-0.47,0.4-0.75h1.06
			c-0.03,0.24-0.12,0.5-0.28,0.79c-0.16,0.29-0.33,0.53-0.53,0.71c-0.32,0.32-0.73,0.53-1.21,0.65c-0.26,0.06-0.55,0.1-0.87,0.1
			c-0.79,0-1.46-0.29-2.02-0.87s-0.83-1.39-0.83-2.44c0-1.03,0.28-1.86,0.83-2.51c0.56-0.64,1.28-0.96,2.18-0.96
			C121.78,438.39,122.22,438.49,122.65,438.71z M123.03,441.22c-0.04-0.47-0.14-0.84-0.3-1.12c-0.29-0.52-0.78-0.78-1.46-0.78
			c-0.49,0-0.9,0.18-1.23,0.54c-0.33,0.36-0.51,0.81-0.53,1.36H123.03z"/>
	</g>
	<g>
		<path d="M23.83,329.54h3.8c1.04,0,1.77,0.31,2.21,0.92c0.26,0.36,0.39,0.78,0.39,1.26c0,0.55-0.16,1.01-0.47,1.36
			c-0.16,0.19-0.4,0.36-0.71,0.51c0.45,0.17,0.79,0.36,1.01,0.58c0.39,0.38,0.59,0.91,0.59,1.58c0,0.57-0.18,1.08-0.54,1.54
			c-0.53,0.69-1.38,1.03-2.55,1.03h-3.74V329.54z M27.18,333.25c0.51,0,0.9-0.07,1.18-0.21c0.44-0.22,0.67-0.61,0.67-1.18
			c0-0.57-0.24-0.96-0.71-1.16c-0.27-0.11-0.66-0.17-1.19-0.17h-2.15v2.72H27.18z M27.58,337.31c0.74,0,1.26-0.21,1.58-0.63
			c0.2-0.27,0.3-0.59,0.3-0.97c0-0.64-0.29-1.07-0.86-1.3c-0.31-0.12-0.71-0.19-1.21-0.19h-2.38v3.09H27.58z"/>
		<path d="M35.84,332.1c0.42,0.21,0.75,0.49,0.97,0.83c0.21,0.32,0.36,0.7,0.43,1.13c0.06,0.3,0.1,0.77,0.1,1.41h-4.66
			c0.02,0.65,0.17,1.17,0.46,1.57c0.29,0.39,0.73,0.59,1.32,0.59c0.56,0,1-0.19,1.33-0.56c0.19-0.22,0.32-0.47,0.4-0.75h1.06
			c-0.03,0.24-0.12,0.5-0.28,0.79c-0.16,0.29-0.33,0.53-0.53,0.71c-0.32,0.32-0.73,0.53-1.21,0.65c-0.26,0.06-0.55,0.1-0.87,0.1
			c-0.79,0-1.46-0.29-2.02-0.87c-0.55-0.58-0.83-1.39-0.83-2.44c0-1.03,0.28-1.86,0.83-2.51c0.56-0.64,1.28-0.96,2.18-0.96
			C34.98,331.78,35.42,331.88,35.84,332.1z M36.23,334.61c-0.04-0.47-0.14-0.84-0.3-1.12c-0.29-0.52-0.78-0.78-1.46-0.78
			c-0.49,0-0.9,0.18-1.23,0.54c-0.33,0.36-0.51,0.81-0.53,1.36H36.23z"/>
		<path d="M39.2,329.96c0.25-0.37,0.74-0.55,1.45-0.55c0.07,0,0.14,0,0.21,0.01s0.15,0.01,0.25,0.02v0.98
			c-0.11-0.01-0.19-0.01-0.25-0.01s-0.1,0-0.14,0c-0.33,0-0.53,0.08-0.59,0.25c-0.06,0.17-0.1,0.6-0.1,1.29h1.08v0.85h-1.08v5.53
			h-1.06v-5.53h-0.89v-0.85h0.89v-1C38.98,330.5,39.06,330.17,39.2,329.96z"/>
		<path d="M46.74,332.56c0.57,0.55,0.85,1.36,0.85,2.43c0,1.03-0.25,1.88-0.75,2.56c-0.5,0.67-1.27,1.01-2.32,1.01
			c-0.88,0-1.57-0.3-2.08-0.89s-0.77-1.4-0.77-2.4c0-1.08,0.27-1.93,0.81-2.57s1.27-0.96,2.19-0.96
			C45.48,331.73,46.18,332.01,46.74,332.56z M46.07,336.82c0.26-0.54,0.39-1.14,0.39-1.8c0-0.6-0.09-1.08-0.28-1.46
			c-0.3-0.59-0.82-0.88-1.55-0.88c-0.65,0-1.12,0.25-1.42,0.75c-0.3,0.5-0.44,1.11-0.44,1.82c0,0.68,0.15,1.25,0.44,1.7
			c0.3,0.45,0.76,0.68,1.41,0.68C45.33,337.63,45.81,337.36,46.07,336.82z"/>
		<path d="M48.94,331.92h1.02v1.11c0.08-0.22,0.29-0.48,0.62-0.79c0.33-0.31,0.7-0.46,1.13-0.46c0.02,0,0.05,0,0.1,0.01
			s0.13,0.01,0.25,0.02v1.14c-0.06-0.01-0.12-0.02-0.18-0.02c-0.05,0-0.11-0.01-0.18-0.01c-0.54,0-0.96,0.17-1.25,0.52
			c-0.29,0.35-0.44,0.75-0.44,1.21v3.68h-1.08V331.92z"/>
		<path d="M56.95,332.1c0.42,0.21,0.75,0.49,0.97,0.83c0.21,0.32,0.36,0.7,0.43,1.13c0.06,0.3,0.1,0.77,0.1,1.41h-4.66
			c0.02,0.65,0.17,1.17,0.46,1.57c0.29,0.39,0.73,0.59,1.32,0.59c0.56,0,1-0.19,1.33-0.56c0.19-0.22,0.32-0.47,0.4-0.75h1.06
			c-0.03,0.24-0.12,0.5-0.28,0.79c-0.16,0.29-0.33,0.53-0.53,0.71c-0.32,0.32-0.73,0.53-1.21,0.65c-0.26,0.06-0.55,0.1-0.87,0.1
			c-0.79,0-1.46-0.29-2.02-0.87s-0.83-1.39-0.83-2.44c0-1.03,0.28-1.86,0.83-2.51c0.56-0.64,1.28-0.96,2.18-0.96
			C56.09,331.78,56.53,331.88,56.95,332.1z M57.34,334.61c-0.04-0.47-0.14-0.84-0.3-1.12c-0.29-0.52-0.78-0.78-1.46-0.78
			c-0.49,0-0.9,0.18-1.23,0.54c-0.33,0.36-0.51,0.81-0.53,1.36H57.34z"/>
		<path d="M67.85,332.56c0.57,0.55,0.85,1.36,0.85,2.43c0,1.03-0.25,1.88-0.75,2.56c-0.5,0.67-1.27,1.01-2.32,1.01
			c-0.88,0-1.57-0.3-2.08-0.89s-0.77-1.4-0.77-2.4c0-1.08,0.27-1.93,0.81-2.57s1.27-0.96,2.19-0.96
			C66.59,331.73,67.29,332.01,67.85,332.56z M67.18,336.82c0.26-0.54,0.39-1.14,0.39-1.8c0-0.6-0.09-1.08-0.28-1.46
			c-0.3-0.59-0.82-0.88-1.55-0.88c-0.65,0-1.12,0.25-1.42,0.75c-0.3,0.5-0.44,1.11-0.44,1.82c0,0.68,0.15,1.25,0.44,1.7
			c0.3,0.45,0.76,0.68,1.41,0.68C66.44,337.63,66.92,337.36,67.18,336.82z"/>
		<path d="M70.05,331.92h1.02v1.11c0.08-0.22,0.29-0.48,0.62-0.79c0.33-0.31,0.7-0.46,1.13-0.46c0.02,0,0.05,0,0.1,0.01
			s0.13,0.01,0.25,0.02v1.14c-0.06-0.01-0.12-0.02-0.18-0.02c-0.05,0-0.11-0.01-0.18-0.01c-0.54,0-0.96,0.17-1.25,0.52
			c-0.29,0.35-0.44,0.75-0.44,1.21v3.68h-1.08V331.92z"/>
		<path d="M80.94,334.45c0.25-0.03,0.41-0.14,0.5-0.31c0.05-0.1,0.07-0.23,0.07-0.42c0-0.37-0.13-0.63-0.39-0.8
			c-0.26-0.17-0.63-0.25-1.12-0.25c-0.56,0-0.96,0.15-1.19,0.46c-0.13,0.17-0.22,0.42-0.26,0.75h-1c0.02-0.79,0.28-1.34,0.77-1.65
			c0.49-0.31,1.06-0.46,1.71-0.46c0.75,0,1.36,0.14,1.83,0.43c0.47,0.29,0.7,0.73,0.7,1.34v3.69c0,0.11,0.02,0.2,0.07,0.27
			c0.05,0.07,0.14,0.1,0.29,0.1c0.05,0,0.1,0,0.16-0.01c0.06-0.01,0.12-0.01,0.19-0.03v0.79c-0.17,0.05-0.29,0.08-0.38,0.09
			c-0.09,0.01-0.21,0.02-0.36,0.02c-0.37,0-0.64-0.13-0.81-0.4c-0.09-0.14-0.15-0.34-0.19-0.59c-0.22,0.29-0.53,0.54-0.95,0.75
			c-0.41,0.21-0.86,0.32-1.36,0.32c-0.59,0-1.08-0.18-1.46-0.54s-0.56-0.81-0.56-1.35c0-0.59,0.19-1.05,0.56-1.38
			c0.37-0.33,0.86-0.53,1.46-0.6L80.94,334.45z M78.67,337.36c0.23,0.18,0.5,0.27,0.81,0.27c0.38,0,0.75-0.09,1.1-0.26
			c0.6-0.29,0.9-0.77,0.9-1.43v-0.87c-0.13,0.08-0.3,0.15-0.51,0.21c-0.21,0.06-0.41,0.1-0.61,0.12l-0.65,0.08
			c-0.39,0.05-0.68,0.13-0.88,0.25c-0.33,0.19-0.5,0.49-0.5,0.89C78.33,336.93,78.44,337.18,78.67,337.36z"/>
		<path d="M84.82,329.96c0.25-0.37,0.74-0.55,1.45-0.55c0.07,0,0.14,0,0.21,0.01s0.15,0.01,0.25,0.02v0.98
			c-0.11-0.01-0.19-0.01-0.25-0.01s-0.1,0-0.14,0c-0.33,0-0.53,0.08-0.59,0.25c-0.06,0.17-0.1,0.6-0.1,1.29h1.08v0.85h-1.08v5.53
			h-1.06v-5.53H83.7v-0.85h0.89v-1C84.6,330.5,84.68,330.17,84.82,329.96z"/>
		<path d="M87.94,330.13h1.09v1.79h1.02v0.88h-1.02v4.18c0,0.22,0.08,0.37,0.23,0.45c0.08,0.04,0.22,0.07,0.42,0.07
			c0.05,0,0.11,0,0.17,0c0.06,0,0.13-0.01,0.21-0.02v0.86c-0.12,0.04-0.25,0.06-0.39,0.08c-0.13,0.02-0.28,0.02-0.43,0.02
			c-0.5,0-0.84-0.13-1.02-0.39c-0.18-0.26-0.27-0.59-0.27-1v-4.24h-0.87v-0.88h0.87V330.13z"/>
		<path d="M95.08,332.1c0.42,0.21,0.75,0.49,0.97,0.83c0.21,0.32,0.36,0.7,0.43,1.13c0.06,0.3,0.1,0.77,0.1,1.41h-4.66
			c0.02,0.65,0.17,1.17,0.46,1.57c0.29,0.39,0.73,0.59,1.32,0.59c0.56,0,1-0.19,1.33-0.56c0.19-0.22,0.32-0.47,0.4-0.75h1.06
			c-0.03,0.24-0.12,0.5-0.28,0.79c-0.16,0.29-0.33,0.53-0.53,0.71c-0.32,0.32-0.73,0.53-1.21,0.65c-0.26,0.06-0.55,0.1-0.87,0.1
			c-0.79,0-1.46-0.29-2.02-0.87s-0.83-1.39-0.83-2.44c0-1.03,0.28-1.86,0.83-2.51c0.56-0.64,1.28-0.96,2.18-0.96
			C94.22,331.78,94.66,331.88,95.08,332.1z M95.47,334.61c-0.04-0.47-0.14-0.84-0.3-1.12c-0.29-0.52-0.78-0.78-1.46-0.78
			c-0.49,0-0.9,0.18-1.23,0.54c-0.33,0.36-0.51,0.81-0.53,1.36H95.47z"/>
		<path d="M97.97,331.92h1.02v1.11c0.08-0.22,0.29-0.48,0.62-0.79c0.33-0.31,0.7-0.46,1.13-0.46c0.02,0,0.05,0,0.1,0.01
			s0.13,0.01,0.25,0.02v1.14c-0.06-0.01-0.12-0.02-0.18-0.02c-0.05,0-0.11-0.01-0.18-0.01c-0.54,0-0.96,0.17-1.25,0.52
			c-0.29,0.35-0.44,0.75-0.44,1.21v3.68h-1.08V331.92z"/>
		<path d="M106.15,329.54l1.66,7.14l1.99-7.14h1.29l1.99,7.15l1.66-7.15h1.3l-2.31,8.79h-1.25l-2.03-7.29l-2.04,7.29h-1.25
			l-2.3-8.79H106.15z"/>
		<path d="M119.97,334.45c0.25-0.03,0.41-0.14,0.5-0.31c0.05-0.1,0.07-0.23,0.07-0.42c0-0.37-0.13-0.63-0.39-0.8
			c-0.26-0.17-0.63-0.25-1.12-0.25c-0.56,0-0.96,0.15-1.19,0.46c-0.13,0.17-0.22,0.42-0.26,0.75h-1c0.02-0.79,0.28-1.34,0.77-1.65
			c0.49-0.31,1.06-0.46,1.71-0.46c0.75,0,1.36,0.14,1.83,0.43c0.47,0.29,0.7,0.73,0.7,1.34v3.69c0,0.11,0.02,0.2,0.07,0.27
			c0.05,0.07,0.14,0.1,0.29,0.1c0.05,0,0.1,0,0.16-0.01c0.06-0.01,0.12-0.01,0.19-0.03v0.79c-0.17,0.05-0.29,0.08-0.38,0.09
			c-0.09,0.01-0.21,0.02-0.36,0.02c-0.37,0-0.64-0.13-0.81-0.4c-0.09-0.14-0.15-0.34-0.19-0.59c-0.22,0.29-0.53,0.54-0.95,0.75
			c-0.41,0.21-0.86,0.32-1.36,0.32c-0.59,0-1.08-0.18-1.46-0.54s-0.56-0.81-0.56-1.35c0-0.59,0.19-1.05,0.56-1.38
			c0.37-0.33,0.86-0.53,1.46-0.6L119.97,334.45z M117.7,337.36c0.23,0.18,0.5,0.27,0.81,0.27c0.38,0,0.75-0.09,1.1-0.26
			c0.6-0.29,0.9-0.77,0.9-1.43v-0.87c-0.13,0.08-0.3,0.15-0.51,0.21c-0.21,0.06-0.41,0.1-0.61,0.12l-0.65,0.08
			c-0.39,0.05-0.68,0.13-0.88,0.25c-0.33,0.19-0.5,0.49-0.5,0.89C117.36,336.93,117.48,337.18,117.7,337.36z"/>
		<path d="M123.35,329.54h1.09v1.22h-1.09V329.54z M123.35,331.95h1.09v6.38h-1.09V331.95z"/>
		<path d="M126.29,330.13h1.09v1.79h1.02v0.88h-1.02v4.18c0,0.22,0.08,0.37,0.23,0.45c0.08,0.04,0.22,0.07,0.42,0.07
			c0.05,0,0.11,0,0.17,0c0.06,0,0.13-0.01,0.21-0.02v0.86c-0.12,0.04-0.25,0.06-0.39,0.08c-0.13,0.02-0.28,0.02-0.43,0.02
			c-0.5,0-0.84-0.13-1.02-0.39c-0.18-0.26-0.27-0.59-0.27-1v-4.24h-0.87v-0.88h0.87V330.13z"/>
	</g>
	<g>
		<path d="M28.07,49.64v-0.83c0.78-0.08,1.32-0.2,1.63-0.38c0.31-0.18,0.54-0.6,0.69-1.26h0.85v8.53h-1.15v-6.07H28.07z"/>
	</g>
	<g>
		<path d="M40.58,80.43c0.27-0.55,0.78-1.04,1.55-1.49l1.15-0.66c0.51-0.3,0.88-0.55,1.08-0.77c0.33-0.33,0.49-0.71,0.49-1.14
			c0-0.5-0.15-0.9-0.45-1.19c-0.3-0.29-0.7-0.44-1.2-0.44c-0.74,0-1.25,0.28-1.53,0.84c-0.15,0.3-0.24,0.72-0.25,1.25h-1.09
			c0.01-0.75,0.15-1.35,0.41-1.82c0.47-0.83,1.29-1.24,2.47-1.24c0.98,0,1.7,0.27,2.15,0.8c0.45,0.53,0.68,1.12,0.68,1.77
			c0,0.69-0.24,1.27-0.72,1.76c-0.28,0.28-0.78,0.63-1.5,1.03L43,79.57c-0.39,0.22-0.7,0.42-0.92,0.62
			c-0.4,0.35-0.65,0.73-0.75,1.15H46v1.02h-5.88C40.16,81.62,40.31,80.98,40.58,80.43z"/>
	</g>
	<g>
		<path d="M59.63,108.41c-0.46-0.56-0.69-1.23-0.69-2.03h1.12c0.05,0.55,0.15,0.96,0.31,1.21c0.28,0.45,0.78,0.68,1.51,0.68
			c0.57,0,1.02-0.15,1.36-0.45c0.34-0.3,0.51-0.69,0.51-1.17c0-0.59-0.18-1-0.54-1.24s-0.86-0.35-1.5-0.35c-0.07,0-0.14,0-0.22,0
			c-0.07,0-0.15,0-0.22,0.01v-0.95c0.11,0.01,0.21,0.02,0.28,0.02s0.16,0.01,0.25,0.01c0.4,0,0.73-0.06,0.99-0.19
			c0.45-0.22,0.68-0.62,0.68-1.2c0-0.43-0.15-0.76-0.45-0.99c-0.3-0.23-0.66-0.35-1.06-0.35c-0.72,0-1.21,0.24-1.49,0.72
			c-0.15,0.26-0.24,0.64-0.26,1.12h-1.06c0-0.64,0.13-1.18,0.38-1.63c0.44-0.8,1.21-1.2,2.31-1.2c0.87,0,1.55,0.19,2.03,0.58
			c0.48,0.39,0.72,0.95,0.72,1.69c0,0.53-0.14,0.95-0.42,1.28c-0.18,0.2-0.4,0.36-0.68,0.48c0.45,0.12,0.8,0.36,1.06,0.71
			c0.25,0.35,0.38,0.78,0.38,1.29c0,0.82-0.27,1.48-0.81,2c-0.54,0.51-1.3,0.77-2.29,0.77C60.82,109.24,60.08,108.96,59.63,108.41z"
			/>
	</g>
	<line class="st4" x1="333.5" y1="84.64" x2="333.5" y2="403.94"/>
	<g>
		<path d="M340.95,84.84h3.8c1.04,0,1.77,0.31,2.21,0.92c0.26,0.36,0.39,0.78,0.39,1.26c0,0.55-0.16,1.01-0.47,1.36
			c-0.16,0.19-0.4,0.36-0.71,0.51c0.45,0.17,0.79,0.36,1.01,0.58c0.39,0.38,0.59,0.91,0.59,1.59c0,0.57-0.18,1.08-0.54,1.54
			c-0.53,0.69-1.38,1.03-2.55,1.03h-3.74V84.84z M344.3,88.56c0.51,0,0.9-0.07,1.18-0.21c0.44-0.22,0.67-0.61,0.67-1.18
			c0-0.57-0.24-0.96-0.71-1.16c-0.27-0.11-0.66-0.17-1.18-0.17h-2.15v2.72H344.3z M344.71,92.61c0.74,0,1.26-0.21,1.58-0.63
			c0.2-0.27,0.3-0.59,0.3-0.97c0-0.64-0.29-1.07-0.86-1.3c-0.31-0.12-0.71-0.19-1.21-0.19h-2.38v3.09H344.71z"/>
		<path d="M353.33,90.79c0.03,0.5,0.14,0.9,0.34,1.21c0.38,0.58,1.05,0.87,2.01,0.87c0.43,0,0.82-0.06,1.18-0.19
			c0.68-0.25,1.03-0.69,1.03-1.33c0-0.48-0.14-0.82-0.43-1.02c-0.29-0.2-0.75-0.37-1.38-0.52l-1.15-0.27
			c-0.75-0.18-1.29-0.37-1.6-0.58c-0.54-0.37-0.81-0.92-0.81-1.65c0-0.79,0.27-1.44,0.8-1.94c0.53-0.51,1.28-0.76,2.26-0.76
			c0.9,0,1.66,0.22,2.28,0.67c0.63,0.44,0.94,1.16,0.94,2.13h-1.12c-0.06-0.47-0.18-0.83-0.37-1.08c-0.35-0.46-0.94-0.69-1.77-0.69
			c-0.67,0-1.16,0.15-1.45,0.44c-0.29,0.3-0.44,0.64-0.44,1.03c0,0.43,0.17,0.75,0.52,0.95c0.23,0.13,0.74,0.29,1.55,0.48l1.19,0.28
			c0.58,0.14,1.02,0.32,1.33,0.56c0.54,0.41,0.81,1.01,0.81,1.79c0,0.97-0.34,1.67-1.04,2.09c-0.69,0.42-1.49,0.63-2.41,0.63
			c-1.07,0-1.9-0.28-2.5-0.84c-0.6-0.55-0.9-1.31-0.89-2.26H353.33z"/>
		<path d="M360.58,84.84h1.09v1.22h-1.09V84.84z M360.58,87.25h1.09v6.38h-1.09V87.25z"/>
		<path d="M366.86,87.48c0.2,0.14,0.41,0.34,0.62,0.61v-0.81h0.99v5.83c0,0.81-0.12,1.46-0.36,1.93c-0.45,0.87-1.29,1.3-2.52,1.3
			c-0.69,0-1.27-0.15-1.73-0.46c-0.47-0.31-0.73-0.79-0.79-1.45h1.09c0.05,0.29,0.16,0.51,0.31,0.66c0.24,0.24,0.62,0.36,1.14,0.36
			c0.82,0,1.36-0.29,1.61-0.87c0.15-0.34,0.22-0.96,0.21-1.84c-0.21,0.33-0.47,0.57-0.77,0.73c-0.3,0.16-0.7,0.24-1.2,0.24
			c-0.69,0-1.3-0.25-1.81-0.74c-0.52-0.49-0.78-1.31-0.78-2.44c0-1.07,0.26-1.91,0.78-2.51s1.15-0.9,1.89-0.9
			C366.05,87.11,366.49,87.23,366.86,87.48z M367,88.63c-0.33-0.38-0.74-0.57-1.24-0.57c-0.75,0-1.27,0.35-1.55,1.06
			c-0.15,0.38-0.22,0.88-0.22,1.49c0,0.72,0.15,1.27,0.44,1.65c0.29,0.38,0.68,0.56,1.18,0.56c0.77,0,1.31-0.35,1.62-1.05
			c0.17-0.4,0.26-0.86,0.26-1.38C367.48,89.6,367.32,89.02,367,88.63z"/>
		<path d="M370.12,87.22h1.02v0.91c0.3-0.38,0.62-0.64,0.96-0.81s0.72-0.25,1.13-0.25c0.91,0,1.52,0.32,1.84,0.95
			c0.17,0.35,0.26,0.84,0.26,1.49v4.11h-1.09v-4.04c0-0.39-0.06-0.71-0.17-0.95c-0.19-0.4-0.54-0.6-1.04-0.6
			c-0.26,0-0.46,0.03-0.63,0.08c-0.3,0.09-0.55,0.26-0.78,0.53c-0.18,0.21-0.3,0.43-0.35,0.65c-0.05,0.23-0.08,0.55-0.08,0.97v3.36
			h-1.08V87.22z"/>
		<path d="M380.36,89.75c0.25-0.03,0.41-0.14,0.5-0.31c0.05-0.1,0.07-0.23,0.07-0.41c0-0.37-0.13-0.64-0.39-0.8
			c-0.26-0.17-0.63-0.25-1.12-0.25c-0.56,0-0.96,0.15-1.19,0.46c-0.13,0.17-0.22,0.42-0.26,0.75h-1c0.02-0.79,0.28-1.34,0.77-1.65
			c0.49-0.31,1.06-0.46,1.71-0.46c0.75,0,1.36,0.14,1.83,0.43c0.47,0.29,0.7,0.73,0.7,1.34v3.69c0,0.11,0.02,0.2,0.07,0.27
			c0.05,0.07,0.14,0.1,0.29,0.1c0.05,0,0.1,0,0.16-0.01s0.12-0.01,0.19-0.03v0.8c-0.17,0.05-0.29,0.08-0.38,0.09
			c-0.09,0.01-0.21,0.02-0.36,0.02c-0.37,0-0.64-0.13-0.81-0.4c-0.09-0.14-0.15-0.34-0.18-0.59c-0.22,0.29-0.54,0.54-0.95,0.75
			c-0.41,0.21-0.86,0.32-1.36,0.32c-0.59,0-1.08-0.18-1.46-0.54s-0.57-0.81-0.57-1.35c0-0.59,0.19-1.05,0.56-1.38
			c0.37-0.33,0.86-0.53,1.46-0.6L380.36,89.75z M378.1,92.66c0.23,0.18,0.5,0.27,0.81,0.27c0.38,0,0.75-0.09,1.1-0.26
			c0.6-0.29,0.9-0.77,0.9-1.43v-0.87c-0.13,0.08-0.3,0.15-0.51,0.21s-0.41,0.1-0.61,0.12l-0.65,0.08c-0.39,0.05-0.68,0.13-0.88,0.24
			c-0.33,0.19-0.5,0.49-0.5,0.9C377.76,92.24,377.87,92.48,378.1,92.66z"/>
		<path d="M383.77,84.84h1.08v8.79h-1.08V84.84z"/>
		<path d="M387.1,91.62c0.03,0.36,0.12,0.63,0.27,0.83c0.28,0.35,0.76,0.52,1.44,0.52c0.41,0,0.77-0.09,1.08-0.26
			c0.31-0.17,0.46-0.44,0.46-0.8c0-0.28-0.12-0.48-0.37-0.63c-0.16-0.09-0.47-0.19-0.94-0.3l-0.87-0.22
			c-0.55-0.14-0.96-0.29-1.23-0.46c-0.47-0.29-0.71-0.69-0.71-1.21c0-0.61,0.22-1.1,0.66-1.47c0.44-0.37,1.04-0.56,1.79-0.56
			c0.98,0,1.68,0.28,2.12,0.85c0.27,0.36,0.4,0.75,0.39,1.16h-1.02c-0.02-0.24-0.11-0.46-0.26-0.66c-0.25-0.28-0.69-0.42-1.32-0.42
			c-0.42,0-0.73,0.08-0.95,0.23c-0.21,0.15-0.32,0.36-0.32,0.61c0,0.28,0.14,0.5,0.42,0.67c0.16,0.1,0.4,0.19,0.72,0.26l0.72,0.17
			c0.79,0.19,1.32,0.37,1.58,0.54c0.42,0.28,0.63,0.71,0.63,1.3c0,0.57-0.22,1.06-0.66,1.48c-0.44,0.42-1.11,0.62-2,0.62
			c-0.96,0-1.65-0.22-2.05-0.65c-0.4-0.43-0.62-0.97-0.64-1.61H387.1z"/>
	</g>
	<g>
		<path d="M80.07,132.83c0.03,0.5,0.14,0.9,0.34,1.21c0.38,0.58,1.05,0.87,2.01,0.87c0.43,0,0.82-0.06,1.18-0.19
			c0.68-0.25,1.03-0.69,1.03-1.33c0-0.48-0.14-0.82-0.43-1.02c-0.29-0.2-0.75-0.37-1.38-0.52l-1.15-0.27
			c-0.75-0.18-1.29-0.37-1.6-0.58c-0.54-0.37-0.81-0.92-0.81-1.65c0-0.79,0.27-1.44,0.8-1.94s1.28-0.76,2.26-0.76
			c0.9,0,1.66,0.22,2.28,0.67c0.63,0.44,0.94,1.16,0.94,2.13h-1.12c-0.06-0.47-0.18-0.83-0.37-1.08c-0.35-0.46-0.94-0.69-1.77-0.69
			c-0.67,0-1.16,0.15-1.45,0.44c-0.29,0.3-0.44,0.64-0.44,1.03c0,0.43,0.17,0.75,0.52,0.95c0.23,0.13,0.74,0.29,1.55,0.48l1.19,0.28
			c0.58,0.14,1.02,0.32,1.33,0.56c0.54,0.41,0.81,1.01,0.81,1.79c0,0.97-0.35,1.67-1.04,2.09c-0.69,0.42-1.49,0.63-2.41,0.63
			c-1.07,0-1.9-0.28-2.5-0.84c-0.6-0.55-0.9-1.31-0.89-2.26H80.07z"/>
		<path d="M91.28,129.43c0.42,0.21,0.75,0.49,0.97,0.83c0.21,0.32,0.36,0.7,0.43,1.13c0.06,0.3,0.1,0.77,0.1,1.41h-4.66
			c0.02,0.65,0.17,1.17,0.46,1.57c0.29,0.39,0.73,0.59,1.32,0.59c0.56,0,1-0.19,1.33-0.56c0.19-0.22,0.32-0.47,0.4-0.75h1.06
			c-0.03,0.24-0.12,0.5-0.28,0.79c-0.16,0.29-0.33,0.53-0.53,0.71c-0.32,0.32-0.73,0.53-1.21,0.65c-0.26,0.06-0.55,0.1-0.87,0.1
			c-0.79,0-1.46-0.29-2.02-0.87s-0.83-1.39-0.83-2.44c0-1.03,0.28-1.86,0.83-2.51c0.56-0.64,1.28-0.96,2.18-0.96
			C90.42,129.11,90.85,129.22,91.28,129.43z M91.66,131.95c-0.04-0.47-0.14-0.84-0.3-1.12c-0.29-0.52-0.78-0.78-1.46-0.78
			c-0.49,0-0.9,0.18-1.23,0.54c-0.33,0.36-0.51,0.81-0.53,1.36H91.66z"/>
		<path d="M94.35,127.47h1.09v1.79h1.02v0.88h-1.02v4.18c0,0.22,0.08,0.37,0.23,0.45c0.08,0.04,0.22,0.07,0.42,0.07
			c0.05,0,0.11,0,0.17,0c0.06,0,0.13-0.01,0.21-0.02v0.86c-0.12,0.04-0.25,0.06-0.39,0.08c-0.13,0.02-0.28,0.02-0.43,0.02
			c-0.5,0-0.84-0.13-1.02-0.39c-0.18-0.26-0.27-0.59-0.27-1v-4.24h-0.87v-0.88h0.87V127.47z"/>
		<path d="M102.97,126.88h1.35l3.19,8.79h-1.3l-0.89-2.63h-3.48l-0.95,2.63h-1.22L102.97,126.88z M104.93,132.06l-1.33-3.88
			l-1.42,3.88H104.93z"/>
	</g>
	<g>
		<path d="M89.2,162.32v-2.09h-3.76v-1.05l3.92-5.44h0.91v5.56h1.26v0.94h-1.26v2.09H89.2z M89.18,159.28v-3.89l-2.75,3.89H89.18z"
			/>
	</g>
	<g>
		<path d="M102.58,186.79c0.07,0.61,0.36,1.04,0.86,1.27c0.26,0.12,0.55,0.18,0.89,0.18c0.64,0,1.11-0.2,1.42-0.61
			c0.31-0.41,0.46-0.86,0.46-1.35c0-0.6-0.18-1.06-0.55-1.39c-0.36-0.33-0.8-0.49-1.31-0.49c-0.37,0-0.69,0.07-0.95,0.22
			s-0.49,0.34-0.68,0.6l-0.93-0.05l0.65-4.61h4.45v1.04h-3.64l-0.37,2.38c0.2-0.15,0.39-0.27,0.57-0.34c0.32-0.13,0.69-0.2,1.11-0.2
			c0.79,0,1.45,0.25,2,0.76s0.82,1.15,0.82,1.93c0,0.81-0.25,1.52-0.75,2.14s-1.3,0.93-2.4,0.93c-0.7,0-1.31-0.2-1.85-0.59
			c-0.54-0.39-0.84-1-0.9-1.81H102.58z"/>
	</g>
	<g>
		<path d="M131.28,207.76c0.38,0.5,0.56,1.01,0.56,1.53h-1.06c-0.06-0.34-0.17-0.6-0.31-0.8c-0.26-0.36-0.65-0.54-1.18-0.54
			c-0.6,0-1.08,0.28-1.44,0.83c-0.35,0.56-0.55,1.35-0.59,2.39c0.25-0.36,0.56-0.63,0.93-0.81c0.34-0.16,0.73-0.24,1.15-0.24
			c0.72,0,1.34,0.23,1.88,0.69c0.53,0.46,0.8,1.14,0.8,2.05c0,0.78-0.25,1.47-0.76,2.07c-0.51,0.6-1.23,0.9-2.17,0.9
			c-0.8,0-1.49-0.3-2.08-0.91c-0.58-0.61-0.87-1.63-0.87-3.07c0-1.06,0.13-1.97,0.39-2.71c0.5-1.42,1.41-2.13,2.73-2.13
			C130.24,207.02,130.91,207.27,131.28,207.76z M130.48,214.31c0.28-0.38,0.42-0.83,0.42-1.35c0-0.44-0.13-0.86-0.38-1.25
			c-0.25-0.4-0.71-0.6-1.37-0.6c-0.46,0-0.87,0.15-1.22,0.46c-0.35,0.31-0.52,0.77-0.52,1.39c0,0.54,0.16,1,0.48,1.37
			c0.32,0.37,0.76,0.55,1.32,0.55C129.77,214.89,130.19,214.7,130.48,214.31z"/>
	</g>
	<g>
		<path d="M141.79,239.44c0.03,0.5,0.14,0.9,0.34,1.21c0.38,0.58,1.05,0.87,2.01,0.87c0.43,0,0.82-0.06,1.18-0.19
			c0.68-0.25,1.03-0.69,1.03-1.33c0-0.48-0.14-0.82-0.43-1.02c-0.29-0.2-0.75-0.37-1.38-0.52l-1.15-0.27
			c-0.75-0.17-1.29-0.37-1.6-0.58c-0.54-0.37-0.81-0.91-0.81-1.64c0-0.79,0.27-1.44,0.8-1.94s1.28-0.76,2.26-0.76
			c0.9,0,1.66,0.22,2.28,0.67c0.63,0.44,0.94,1.16,0.94,2.13h-1.12c-0.06-0.47-0.18-0.83-0.37-1.08c-0.35-0.46-0.94-0.69-1.77-0.69
			c-0.67,0-1.16,0.15-1.45,0.44c-0.29,0.3-0.44,0.64-0.44,1.03c0,0.43,0.17,0.75,0.52,0.95c0.23,0.13,0.74,0.29,1.55,0.48l1.19,0.28
			c0.58,0.14,1.02,0.32,1.33,0.56c0.54,0.41,0.81,1.01,0.81,1.79c0,0.97-0.35,1.67-1.04,2.09s-1.49,0.63-2.41,0.63
			c-1.07,0-1.9-0.28-2.5-0.84c-0.6-0.55-0.9-1.31-0.89-2.26H141.79z"/>
		<path d="M152.99,236.04c0.42,0.21,0.75,0.49,0.97,0.83c0.21,0.32,0.36,0.7,0.43,1.13c0.06,0.3,0.1,0.77,0.1,1.41h-4.66
			c0.02,0.65,0.17,1.17,0.46,1.57c0.29,0.39,0.73,0.59,1.32,0.59c0.56,0,1-0.19,1.33-0.56c0.19-0.22,0.32-0.47,0.4-0.75h1.06
			c-0.03,0.24-0.12,0.5-0.28,0.79c-0.16,0.29-0.33,0.53-0.53,0.71c-0.32,0.32-0.73,0.53-1.21,0.65c-0.26,0.06-0.55,0.1-0.87,0.1
			c-0.79,0-1.46-0.29-2.02-0.87s-0.83-1.39-0.83-2.44c0-1.03,0.28-1.86,0.83-2.51c0.56-0.64,1.28-0.96,2.18-0.96
			C152.13,235.72,152.57,235.83,152.99,236.04z M153.38,238.56c-0.04-0.47-0.14-0.84-0.3-1.12c-0.29-0.52-0.78-0.78-1.46-0.78
			c-0.49,0-0.9,0.18-1.23,0.54c-0.33,0.36-0.51,0.81-0.53,1.36H153.38z"/>
		<path d="M156.07,234.08h1.09v1.79h1.02v0.88h-1.02v4.18c0,0.22,0.08,0.37,0.23,0.45c0.08,0.04,0.22,0.07,0.42,0.07
			c0.05,0,0.11,0,0.17,0c0.06,0,0.13-0.01,0.21-0.02v0.86c-0.12,0.04-0.25,0.06-0.39,0.08c-0.13,0.02-0.28,0.02-0.43,0.02
			c-0.5,0-0.84-0.13-1.02-0.39c-0.18-0.26-0.27-0.59-0.27-1v-4.24h-0.87v-0.88h0.87V234.08z"/>
		<path d="M162.77,233.49h3.8c1.04,0,1.77,0.31,2.21,0.92c0.26,0.36,0.39,0.78,0.39,1.26c0,0.55-0.16,1.01-0.47,1.36
			c-0.16,0.19-0.4,0.36-0.71,0.51c0.45,0.17,0.79,0.36,1.01,0.58c0.39,0.38,0.59,0.91,0.59,1.58c0,0.57-0.18,1.08-0.54,1.54
			c-0.53,0.69-1.38,1.03-2.55,1.03h-3.74V233.49z M166.13,237.2c0.51,0,0.9-0.07,1.18-0.21c0.44-0.22,0.67-0.61,0.67-1.18
			c0-0.57-0.24-0.96-0.71-1.16c-0.27-0.11-0.66-0.17-1.19-0.17h-2.15v2.72H166.13z M166.53,241.26c0.74,0,1.26-0.21,1.58-0.63
			c0.2-0.27,0.3-0.59,0.3-0.97c0-0.64-0.29-1.07-0.86-1.3c-0.31-0.12-0.71-0.19-1.21-0.19h-2.38v3.09H166.53z"/>
	</g>
	<g>
		<path d="M150.31,260.14l1.66,7.14l1.99-7.14h1.29l1.99,7.15l1.66-7.15h1.3l-2.31,8.79h-1.25l-2.03-7.29l-2.04,7.29h-1.25
			l-2.3-8.79H150.31z"/>
		<path d="M164.13,265.05c0.25-0.03,0.41-0.14,0.5-0.31c0.05-0.1,0.07-0.23,0.07-0.42c0-0.37-0.13-0.63-0.39-0.8
			c-0.26-0.17-0.63-0.25-1.12-0.25c-0.56,0-0.96,0.15-1.19,0.46c-0.13,0.17-0.22,0.42-0.26,0.75h-1c0.02-0.79,0.28-1.34,0.77-1.65
			c0.49-0.31,1.06-0.46,1.71-0.46c0.75,0,1.36,0.14,1.83,0.43c0.47,0.29,0.7,0.73,0.7,1.34v3.69c0,0.11,0.02,0.2,0.07,0.27
			c0.05,0.07,0.14,0.1,0.29,0.1c0.05,0,0.1,0,0.16-0.01c0.06-0.01,0.12-0.01,0.19-0.03v0.79c-0.17,0.05-0.29,0.08-0.38,0.09
			c-0.09,0.01-0.21,0.02-0.36,0.02c-0.37,0-0.64-0.13-0.81-0.4c-0.09-0.14-0.15-0.34-0.19-0.59c-0.22,0.29-0.53,0.54-0.95,0.75
			c-0.41,0.21-0.86,0.32-1.36,0.32c-0.59,0-1.08-0.18-1.46-0.54s-0.56-0.81-0.56-1.35c0-0.59,0.19-1.05,0.56-1.38
			c0.37-0.33,0.86-0.53,1.46-0.6L164.13,265.05z M161.87,267.96c0.23,0.18,0.5,0.27,0.81,0.27c0.38,0,0.75-0.09,1.1-0.26
			c0.6-0.29,0.9-0.77,0.9-1.43v-0.87c-0.13,0.08-0.3,0.15-0.51,0.21c-0.21,0.06-0.41,0.1-0.61,0.12l-0.65,0.08
			c-0.39,0.05-0.68,0.13-0.88,0.25c-0.33,0.19-0.5,0.49-0.5,0.89C161.53,267.53,161.64,267.78,161.87,267.96z"/>
		<path d="M167.51,260.14h1.09v1.22h-1.09V260.14z M167.51,262.55h1.09v6.38h-1.09V262.55z"/>
		<path d="M170.45,260.73h1.09v1.79h1.02v0.88h-1.02v4.18c0,0.22,0.08,0.37,0.23,0.45c0.08,0.04,0.22,0.07,0.42,0.07
			c0.05,0,0.11,0,0.17,0c0.06,0,0.13-0.01,0.21-0.02v0.86c-0.12,0.04-0.25,0.06-0.39,0.08c-0.13,0.02-0.28,0.02-0.43,0.02
			c-0.5,0-0.84-0.13-1.02-0.39c-0.18-0.26-0.27-0.59-0.27-1v-4.24h-0.87v-0.88h0.87V260.73z"/>
		<path d="M179.07,260.14h1.35l3.19,8.79h-1.3l-0.89-2.63h-3.48l-0.95,2.63h-1.22L179.07,260.14z M181.03,265.33l-1.33-3.88
			l-1.42,3.88H181.03z"/>
	</g>
	<g>
		<path d="M256.17,287.16v0.94c-0.27,0.27-0.64,0.73-1.1,1.39c-0.46,0.66-0.86,1.38-1.21,2.14c-0.35,0.75-0.61,1.43-0.79,2.04
			c-0.12,0.4-0.27,1.03-0.45,1.91h-1.19c0.27-1.63,0.87-3.26,1.79-4.88c0.55-0.95,1.12-1.77,1.72-2.46h-4.74v-1.08H256.17z"/>
	</g>
	<g>
		<path d="M263.73,317.22c-0.32-0.32-0.47-0.73-0.47-1.24c0-0.64,0.23-1.19,0.69-1.65c0.46-0.46,1.12-0.69,1.97-0.69
			c0.82,0,1.46,0.22,1.93,0.65c0.47,0.43,0.7,0.94,0.7,1.52c0,0.53-0.13,0.97-0.41,1.3c-0.15,0.19-0.39,0.37-0.71,0.55
			c0.36,0.16,0.64,0.35,0.84,0.56c0.38,0.4,0.57,0.92,0.57,1.55c0,0.75-0.25,1.39-0.76,1.92c-0.51,0.52-1.22,0.79-2.15,0.79
			c-0.83,0-1.54-0.23-2.11-0.68c-0.58-0.45-0.86-1.11-0.86-1.97c0-0.51,0.12-0.94,0.37-1.31s0.61-0.65,1.1-0.85
			C264.13,317.54,263.89,317.39,263.73,317.22z M267.2,321.09c0.33-0.27,0.49-0.67,0.49-1.21c0-0.55-0.17-0.98-0.51-1.26
			s-0.77-0.43-1.3-0.43c-0.51,0-0.93,0.15-1.26,0.44c-0.32,0.29-0.49,0.7-0.49,1.22c0,0.45,0.15,0.83,0.45,1.16
			c0.3,0.33,0.76,0.49,1.38,0.49C266.46,321.5,266.87,321.36,267.2,321.09z M267,316.86c0.27-0.27,0.4-0.58,0.4-0.95
			c0-0.32-0.13-0.61-0.38-0.88s-0.64-0.4-1.16-0.4c-0.52,0-0.89,0.13-1.12,0.4s-0.35,0.58-0.35,0.94c0,0.4,0.15,0.72,0.45,0.95
			c0.3,0.23,0.65,0.34,1.06,0.34C266.36,317.26,266.73,317.12,267,316.86z"/>
	</g>
	<g>
		<path d="M273.4,340.1l1.66,7.14l1.99-7.14h1.29l1.99,7.15l1.66-7.15h1.3l-2.31,8.79h-1.25l-2.03-7.29l-2.04,7.29h-1.25l-2.3-8.79
			H273.4z"/>
		<path d="M287.22,345.01c0.25-0.03,0.41-0.13,0.5-0.31c0.05-0.1,0.07-0.23,0.07-0.41c0-0.37-0.13-0.64-0.39-0.8
			s-0.63-0.25-1.12-0.25c-0.56,0-0.96,0.15-1.19,0.46c-0.13,0.17-0.22,0.42-0.26,0.75h-1c0.02-0.79,0.28-1.34,0.77-1.65
			s1.06-0.46,1.71-0.46c0.75,0,1.36,0.14,1.83,0.43c0.47,0.29,0.7,0.73,0.7,1.34v3.69c0,0.11,0.02,0.2,0.07,0.27s0.14,0.1,0.29,0.1
			c0.05,0,0.1,0,0.16-0.01s0.12-0.01,0.19-0.03v0.8c-0.17,0.05-0.29,0.08-0.38,0.09s-0.21,0.02-0.36,0.02
			c-0.37,0-0.64-0.13-0.81-0.39c-0.09-0.14-0.15-0.34-0.18-0.59c-0.22,0.29-0.54,0.54-0.95,0.75c-0.41,0.21-0.86,0.32-1.36,0.32
			c-0.59,0-1.08-0.18-1.46-0.54s-0.57-0.81-0.57-1.35c0-0.59,0.19-1.05,0.56-1.38c0.37-0.33,0.86-0.53,1.46-0.6L287.22,345.01z
			 M284.96,347.92c0.23,0.18,0.5,0.27,0.81,0.27c0.38,0,0.75-0.09,1.1-0.26c0.6-0.29,0.9-0.77,0.9-1.43v-0.87
			c-0.13,0.08-0.3,0.15-0.51,0.21c-0.21,0.06-0.41,0.1-0.61,0.12l-0.65,0.08c-0.39,0.05-0.68,0.13-0.88,0.24
			c-0.33,0.19-0.5,0.49-0.5,0.9C284.62,347.49,284.73,347.74,284.96,347.92z"/>
		<path d="M290.6,340.1h1.09v1.22h-1.09V340.1z M290.6,342.51h1.09v6.38h-1.09V342.51z"/>
		<path d="M293.54,340.69h1.09v1.79h1.02v0.88h-1.02v4.18c0,0.22,0.08,0.37,0.23,0.45c0.08,0.04,0.22,0.07,0.42,0.07
			c0.05,0,0.11,0,0.17,0c0.06,0,0.13-0.01,0.21-0.02v0.86c-0.12,0.04-0.25,0.06-0.39,0.08s-0.28,0.02-0.43,0.02
			c-0.5,0-0.84-0.13-1.02-0.39c-0.18-0.26-0.27-0.59-0.27-1v-4.24h-0.87v-0.88h0.87V340.69z"/>
		<path d="M300.25,340.1h3.8c1.04,0,1.77,0.31,2.21,0.92c0.26,0.36,0.39,0.78,0.39,1.26c0,0.55-0.16,1.01-0.47,1.36
			c-0.16,0.19-0.4,0.36-0.71,0.51c0.45,0.17,0.79,0.37,1.01,0.58c0.39,0.38,0.59,0.91,0.59,1.59c0,0.57-0.18,1.08-0.54,1.54
			c-0.53,0.69-1.38,1.03-2.55,1.03h-3.74V340.1z M303.6,343.81c0.51,0,0.9-0.07,1.18-0.21c0.44-0.22,0.67-0.61,0.67-1.18
			c0-0.57-0.24-0.96-0.71-1.16c-0.27-0.11-0.66-0.17-1.18-0.17h-2.15v2.72H303.6z M304,347.87c0.74,0,1.26-0.21,1.58-0.63
			c0.2-0.27,0.3-0.59,0.3-0.97c0-0.64-0.29-1.07-0.86-1.3c-0.31-0.12-0.71-0.19-1.21-0.19h-2.38v3.09H304z"/>
	</g>
	<g>
		<path d="M339.82,373.46c0.03,0.59,0.26,1,0.69,1.23c0.22,0.12,0.47,0.18,0.74,0.18c0.51,0,0.95-0.21,1.32-0.64
			c0.36-0.43,0.62-1.3,0.77-2.61c-0.24,0.38-0.54,0.64-0.89,0.8c-0.35,0.15-0.73,0.23-1.14,0.23c-0.83,0-1.48-0.26-1.96-0.77
			c-0.48-0.51-0.72-1.17-0.72-1.98c0-0.78,0.24-1.46,0.71-2.05c0.47-0.59,1.17-0.88,2.1-0.88c1.25,0,2.11,0.56,2.58,1.69
			c0.26,0.62,0.4,1.39,0.4,2.32c0,1.05-0.16,1.98-0.47,2.79c-0.52,1.35-1.41,2.02-2.66,2.02c-0.84,0-1.47-0.22-1.91-0.66
			s-0.65-0.99-0.65-1.65H339.82z M342.62,371.28c0.35-0.28,0.53-0.77,0.53-1.47c0-0.63-0.16-1.1-0.48-1.41s-0.72-0.46-1.21-0.46
			c-0.53,0-0.94,0.18-1.25,0.53c-0.31,0.35-0.46,0.82-0.46,1.41c0,0.56,0.14,1,0.41,1.33c0.27,0.33,0.7,0.49,1.3,0.49
			C341.88,371.7,342.27,371.56,342.62,371.28z"/>
	</g>
</g>
</svg>
